<?xml version="1.0" standalone="no"?>
<!DOCTYPE svg PUBLIC "-//W3C//DTD SVG 20010904//EN"
 "http://www.w3.org/TR/2001/REC-SVG-20010904/DTD/svg10.dtd">
<svg version="1.0" xmlns="http://www.w3.org/2000/svg"
 width="500.000000pt" height="500.000000pt" viewBox="0 0 500.000000 500.000000"
 preserveAspectRatio="xMidYMid meet">

<g transform="translate(0.000000,500.000000) scale(0.100000,-0.100000)"
fill="#000000" stroke="none">
<path d="M760 2500 l0 -480 1740 0 1740 0 0 480 0 480 -1740 0 -1740 0 0 -480z
m3450 0 l0 -450 -1715 0 -1715 0 0 450 0 450 1715 0 1715 0 0 -450z"/>
<path d="M850 2500 l0 -390 825 0 825 0 0 390 0 390 -825 0 -825 0 0 -390z
m211 151 c13 -11 21 -23 17 -27 -5 -4 -17 1 -27 10 -28 25 -72 17 -91 -16 -13
-25 -13 -31 0 -55 21 -38 70 -43 99 -12 11 12 24 19 28 16 3 -4 -4 -18 -17
-32 -32 -34 -82 -34 -115 0 -71 70 29 179 106 116z m181 2 c23 -21 23 -49 -1
-70 -20 -16 -20 -17 0 -45 15 -20 17 -28 7 -28 -8 0 -22 14 -32 31 -22 37 -50
35 -54 -4 -2 -15 -8 -27 -13 -27 -5 0 -9 36 -9 80 l0 80 42 0 c24 0 49 -7 60
-17z m168 7 c0 -5 -16 -10 -35 -10 -31 0 -35 -3 -35 -25 0 -22 4 -25 35 -25
19 0 35 -4 35 -10 0 -5 -16 -10 -35 -10 -31 0 -35 -3 -35 -25 0 -22 4 -25 35
-25 19 0 35 -4 35 -10 0 -5 -20 -10 -45 -10 l-45 0 0 80 0 80 45 0 c25 0 45
-4 45 -10z m157 -67 c31 -79 33 -107 6 -65 -20 29 -78 31 -93 2 -6 -11 -15
-20 -20 -20 -5 0 3 28 17 63 32 78 42 97 52 97 4 0 22 -35 38 -77z m193 67 c0
-5 -13 -10 -30 -10 l-30 0 0 -70 c0 -40 -4 -70 -10 -70 -6 0 -10 30 -10 70 0
68 -1 70 -25 70 -14 0 -25 5 -25 10 0 6 28 10 65 10 37 0 65 -4 65 -10z m70
-70 c0 -47 -4 -80 -10 -80 -6 0 -10 33 -10 80 0 47 4 80 10 80 6 0 10 -33 10
-80z m82 25 c11 -28 23 -54 27 -58 5 -5 18 19 31 52 12 34 27 61 32 61 11 0 6
-16 -27 -97 -12 -31 -27 -59 -33 -61 -8 -2 -24 32 -70 147 -3 8 0 12 8 9 7 -2
21 -26 32 -53z m168 -25 c0 -47 -4 -80 -10 -80 -6 0 -10 33 -10 80 0 47 4 80
10 80 6 0 10 -33 10 -80z m180 70 c0 -5 -13 -10 -30 -10 l-30 0 0 -70 c0 -40
-4 -70 -10 -70 -6 0 -10 30 -10 70 0 68 -1 70 -25 70 -14 0 -25 5 -25 10 0 6
28 10 65 10 37 0 65 -4 65 -10z m71 -31 l21 -42 24 42 c37 62 51 49 15 -14
-17 -30 -31 -66 -31 -80 0 -14 -4 -25 -10 -25 -5 0 -10 15 -10 33 0 17 -11 50
-25 72 -27 44 -30 55 -15 55 5 0 19 -19 31 -41z"/>
<path d="M1160 2620 c0 -28 3 -30 35 -30 23 0 38 6 41 15 9 23 -15 45 -47 45
-26 0 -29 -4 -29 -30z"/>
<path d="M1512 2607 c-16 -45 -16 -47 13 -47 28 0 32 20 12 58 -13 22 -13 22
-25 -11z"/>
<path d="M2990 2510 l0 -130 35 0 35 0 0 50 0 50 40 0 40 0 0 -50 0 -50 40 0
40 0 0 130 0 130 -40 0 -40 0 0 -45 0 -45 -40 0 -40 0 0 45 c0 45 0 45 -35 45
l-35 0 0 -130z"/>
<path d="M3270 2550 c0 -134 25 -172 115 -172 90 0 115 38 115 172 l0 90 -40
0 -39 0 -3 -92 -3 -93 -30 0 -30 0 -3 93 -3 92 -39 0 -40 0 0 -90z"/>
<path d="M3550 2510 l0 -130 80 0 c94 0 134 16 144 56 5 20 2 35 -12 54 -17
23 -18 28 -6 45 21 29 17 61 -12 84 -22 17 -41 21 -110 21 l-84 0 0 -130z
m138 53 c3 -20 -1 -23 -27 -23 -27 0 -31 4 -31 26 0 22 4 25 28 22 19 -2 28
-9 30 -25z m10 -88 c13 -13 -11 -35 -38 -35 -26 0 -30 4 -30 26 0 24 3 26 32
20 17 -3 34 -8 36 -11z"/>
</g>
</svg>
