<?xml version="1.0" standalone="no"?>
<!DOCTYPE svg PUBLIC "-//W3C//DTD SVG 20010904//EN"
 "http://www.w3.org/TR/2001/REC-SVG-20010904/DTD/svg10.dtd">
<svg version="1.0" xmlns="http://www.w3.org/2000/svg"
 width="500.000000pt" height="500.000000pt" viewBox="0 0 500.000000 500.000000"
 preserveAspectRatio="xMidYMid meet">

<g transform="translate(0.000000,500.000000) scale(0.100000,-0.100000)"
fill="#000000" stroke="none">
<path d="M1559 2915 c-96 -31 -169 -143 -153 -235 15 -85 84 -157 173 -180 46
-12 121 -6 156 12 14 8 20 8 23 -1 2 -6 24 -11 48 -11 l44 0 0 79 c0 94 12
113 68 109 l37 -3 -3 -51 c-3 -46 0 -55 28 -88 56 -63 140 -71 213 -22 35 24
36 24 52 6 38 -42 118 -48 158 -13 15 15 17 15 17 0 0 -13 10 -17 45 -17 l45
0 0 95 c0 78 3 95 15 95 12 0 15 -14 15 -65 0 -117 24 -138 149 -128 l80 6 3
99 3 99 53 -100 c51 -96 55 -101 85 -101 30 0 35 6 87 103 l55 102 3 -102 3
-103 44 0 45 0 0 95 c0 78 3 95 15 95 12 0 15 -14 15 -65 0 -77 13 -110 51
-125 38 -16 99 -5 98 18 -1 33 -16 57 -35 57 -16 0 -19 9 -22 58 -3 54 -2 57
20 57 18 0 32 -15 64 -74 l42 -75 -45 -85 -44 -86 53 0 53 0 98 189 c53 103
97 191 97 195 0 3 -22 6 -48 6 l-48 0 -29 -60 c-16 -33 -31 -60 -34 -60 -3 0
-21 27 -39 60 l-33 60 -54 0 -55 0 0 50 0 50 -45 0 -45 0 0 -50 0 -50 -102 0
-103 0 -31 -68 -31 -67 -32 68 -31 67 -110 0 -110 0 0 50 0 50 -45 0 -45 0 0
-50 0 -50 -60 0 c-34 0 -60 -4 -60 -10 0 -6 -13 -4 -30 5 -52 27 -111 14 -154
-34 l-19 -20 -19 24 c-24 31 -85 50 -132 41 -20 -4 -52 -21 -72 -38 l-35 -31
13 27 c10 23 9 29 -3 37 -24 15 -65 10 -93 -12 -21 -17 -26 -18 -26 -5 0 12
-11 16 -45 16 l-45 0 0 -102 c-1 -97 -2 -101 -16 -76 -12 24 -18 26 -40 18
-39 -15 -103 -12 -134 6 -79 47 -78 166 2 210 28 16 97 18 132 4 24 -9 28 -6
46 30 l20 39 -29 16 c-44 22 -129 27 -182 10z m571 -220 c18 -22 9 -27 -46
-23 -46 3 -47 4 -30 21 22 21 59 22 76 2z m272 -22 c39 -35 11 -103 -43 -103
-30 0 -59 31 -59 64 0 48 64 73 102 39z m278 -42 c0 -54 -2 -58 -22 -57 -21 1
-23 7 -26 59 -3 55 -2 57 23 57 24 0 25 -2 25 -59z m-472 -39 c3 -20 1 -21
-22 -11 -19 9 -29 9 -40 0 -23 -19 -77 -17 -92 4 -8 11 -14 23 -14 27 0 5 37
8 83 6 77 -3 82 -4 85 -26z"/>
<path d="M2686 2904 c-32 -32 -11 -84 34 -84 53 0 78 50 42 83 -23 21 -56 22
-76 1z"/>
<path d="M3060 2901 c-24 -45 -5 -81 42 -81 18 0 33 8 44 25 15 23 15 27 0 50
-21 31 -70 35 -86 6z"/>
<path d="M2670 2010 l0 -220 45 0 c35 0 45 4 45 17 0 14 2 15 18 1 88 -78 225
29 193 150 -22 80 -110 123 -179 88 l-32 -17 0 101 0 100 -45 0 -45 0 0 -220z
m192 -47 c22 -20 23 -61 1 -85 -34 -38 -103 -11 -103 40 0 54 62 81 102 45z"/>
<path d="M2040 2000 l0 -210 50 0 50 0 0 85 0 85 65 0 65 0 0 -85 0 -85 50 0
50 0 0 210 0 210 -50 0 -50 0 0 -85 0 -85 -65 0 -65 0 0 85 0 85 -50 0 -50 0
0 -210z"/>
<path d="M2380 1949 c0 -97 1 -102 28 -129 49 -49 166 -52 220 -5 26 22 27 29
30 129 l4 106 -46 0 -46 0 0 -83 c0 -90 -8 -107 -50 -107 -42 0 -50 17 -50
107 l0 83 -45 0 -45 0 0 -101z"/>
</g>
</svg>
